<?xml version="1.0" encoding="UTF-8" standalone="no"?>
<!-- Created with Inkscape (http://www.inkscape.org/) -->

<svg
   xmlns:dc="http://purl.org/dc/elements/1.1/"
   xmlns:cc="http://creativecommons.org/ns#"
   xmlns:rdf="http://www.w3.org/1999/02/22-rdf-syntax-ns#"
   xmlns:svg="http://www.w3.org/2000/svg"
   xmlns="http://www.w3.org/2000/svg"
   xmlns:sodipodi="http://sodipodi.sourceforge.net/DTD/sodipodi-0.dtd"
   xmlns:inkscape="http://www.inkscape.org/namespaces/inkscape"
   width="156"
   height="160"
   viewBox="0 0 156 160"
   id="svg2"
   version="1.1"
   inkscape:version="0.91 r13725"
   sodipodi:docname="times.svg">
  <defs
     id="defs4" />
  <sodipodi:namedview
     id="base"
     pagecolor="#ffffff"
     bordercolor="#666666"
     borderopacity="1.0"
     inkscape:pageopacity="0.0"
     inkscape:pageshadow="2"
     inkscape:zoom="2.8284271"
     inkscape:cx="54.259576"
     inkscape:cy="56.215439"
     inkscape:document-units="px"
     inkscape:current-layer="layer1"
     showgrid="false"
     inkscape:window-width="1366"
     inkscape:window-height="706"
     inkscape:window-x="-7"
     inkscape:window-y="-7"
     inkscape:window-maximized="1"
     units="px"
     height="10in" />
  <metadata
     id="metadata7">
    <rdf:RDF>
      <cc:Work
         rdf:about="">
        <dc:format>image/svg+xml</dc:format>
        <dc:type
           rdf:resource="http://purl.org/dc/dcmitype/StillImage" />
        <dc:title />
      </cc:Work>
    </rdf:RDF>
  </metadata>
  <g
     inkscape:label="Layer 1"
     inkscape:groupmode="layer"
     id="layer1"
     transform="translate(0,-892.3622)">
    <ellipse
       style="opacity:1;fill:#0000ff;fill-opacity:1;stroke:#000000;stroke-width:0.36454016;stroke-linecap:round;stroke-linejoin:miter;stroke-miterlimit:4;stroke-dasharray:none;stroke-opacity:1"
       id="path4208-4"
       cx="-662.18634"
       cy="663.00647"
       rx="24.634703"
       ry="6.5198364"
       transform="matrix(-0.79925904,-0.60098668,-0.61538444,0.78822712,0,0)" />
    <path
       style="opacity:1;fill:#808080;fill-opacity:1;stroke:#000000;stroke-width:0.37029579;stroke-linecap:round;stroke-linejoin:miter;stroke-miterlimit:4;stroke-dasharray:none;stroke-opacity:1"
       d="m 139.40351,897.12567 c 1.97204,1.76406 3.10944,4.61922 0.72161,7.90488 L 33.626883,1046.7681 c -0.771136,1.0264 -1.730026,1.3905 -2.149975,0.8164 l -4.193097,-5.7318 c -0.419949,-0.5741 -0.137219,-1.8625 0.633914,-2.8887 L 134.41597,897.22637 c 0.77114,-1.02631 3.74819,-1.20934 4.98754,-0.1007 z"
       id="rect4176-0-2"
       inkscape:connector-curvature="0"
       sodipodi:nodetypes="acsssssa" />
    <path
       style="opacity:1;fill:#0066ff;fill-opacity:1;stroke:#000000;stroke-width:0.45947167;stroke-linecap:round;stroke-linejoin:miter;stroke-miterlimit:4;stroke-dasharray:none;stroke-opacity:1"
       d="m 135.17378,902.45528 c -10.47935,-8.13474 -32.07499,-6.0058 -34.0499,3.61679 0,0 11.24706,11.30479 17.50908,16.20761 6.72554,5.26574 21.41065,14.07949 21.41065,14.07949 6.15359,-1.72956 5.59909,-25.74664 -4.86983,-33.90389 z"
       id="path4183-1-9"
       inkscape:connector-curvature="0"
       inkscape:transform-center-x="37.979273"
       inkscape:transform-center-y="-19.060311"
       sodipodi:nodetypes="ccacc" />
    <ellipse
       style="opacity:1;fill:#0000ff;fill-opacity:1;stroke:#000000;stroke-width:0.36454016;stroke-linecap:round;stroke-linejoin:miter;stroke-miterlimit:4;stroke-dasharray:none;stroke-opacity:1"
       id="path4208"
       cx="-539.59802"
       cy="756.89148"
       rx="24.634703"
       ry="6.5198364"
       transform="matrix(0.79925904,-0.60098668,0.61538444,0.78822712,0,0)" />
    <path
       style="opacity:1;fill:#808080;fill-opacity:1;stroke:#000000;stroke-width:0.36872727;stroke-linecap:round;stroke-linejoin:miter;stroke-miterlimit:4;stroke-dasharray:none;stroke-opacity:1"
       d="m 15.282728,897.80532 c -1.761974,1.98107 -1.329062,4.6069 1.044067,7.88497 L 122.16939,1047.1002 c 0.76639,1.0239 1.71936,1.3872 2.13673,0.8145 l 4.16728,-5.7185 c 0.41737,-0.5728 0.13638,-1.8582 -0.63001,-2.8821 L 22.000799,897.90414 c -0.766394,-1.02392 -5.229682,-1.77229 -6.718071,-0.0988 z"
       id="rect4176-0"
       inkscape:connector-curvature="0"
       sodipodi:nodetypes="acsssssa" />
    <path
       style="opacity:1;fill:#0066ff;fill-opacity:1;stroke:#000000;stroke-width:0.45947167;stroke-linecap:round;stroke-linejoin:miter;stroke-miterlimit:4;stroke-dasharray:none;stroke-opacity:1"
       d="m 20.581439,902.78408 c 10.479349,-8.13474 32.074991,-6.0058 34.049907,3.6168 0,0 -11.247066,11.30479 -17.509084,16.20761 -6.725536,5.26573 -21.410649,14.07948 -21.410649,14.07948 -6.1535857,-1.72955 -5.599088,-25.74663 4.869826,-33.90389 z"
       id="path4183-1"
       inkscape:connector-curvature="0"
       inkscape:transform-center-x="-37.979275"
       inkscape:transform-center-y="-19.06031"
       sodipodi:nodetypes="ccacc" />
    <ellipse
       style="opacity:1;fill:#ffffff;fill-opacity:1;stroke:#000000;stroke-width:0.45441535;stroke-linecap:round;stroke-linejoin:miter;stroke-miterlimit:4;stroke-dasharray:none;stroke-opacity:1"
       id="path4206"
       cx="77.905609"
       cy="976.14612"
       rx="55.423538"
       ry="54.174332" />
    <path
       style="opacity:1;fill:#0066ff;fill-opacity:1;stroke:#000000;stroke-width:0.34971893;stroke-linecap:round;stroke-linejoin:miter;stroke-miterlimit:4;stroke-dasharray:none;stroke-opacity:1"
       d="M 77.760744,921.95117 A 56.009323,54.590569 0 0 0 21.751758,976.54126 56.009323,54.590569 0 0 0 77.760744,1031.132 56.009323,54.590569 0 0 0 133.77042,976.54126 56.009323,54.590569 0 0 0 77.760744,921.95117 Z m 0,8.44274 a 46.147651,46.147651 0 0 1 46.148046,46.14735 46.147651,46.147651 0 0 1 -46.148046,46.14804 46.147651,46.147651 0 0 1 -46.147358,-46.14804 46.147651,46.147651 0 0 1 46.147358,-46.14735 z"
       id="path4136-5"
       inkscape:connector-curvature="0" />
    <path
       inkscape:connector-curvature="0"
       style="opacity:1;fill:#1a1a1a;fill-opacity:1;stroke:#000000;stroke-width:0.59139448;stroke-linecap:round;stroke-linejoin:miter;stroke-miterlimit:4;stroke-dasharray:none;stroke-opacity:1"
       d="m 77.945517,973.38334 4.024133,2.30044 c 0.539022,0.30814 0.434489,1.14146 -0.23438,1.86843 l -17.13889,18.62774 c -1.54874,1.24445 -3.706427,0.98674 -5.030673,0.17377 -1.221858,-0.75008 -1.608257,-2.85967 -0.939388,-3.58663 l 17.138892,-18.62773 c 0.668865,-0.72697 1.641287,-1.06416 2.180306,-0.75602 z"
       id="rect4142"
       sodipodi:nodetypes="ssscasss" />
    <rect
       style="opacity:1;fill:#ff0000;fill-opacity:1;stroke:#000000;stroke-width:0;stroke-linecap:round;stroke-linejoin:miter;stroke-miterlimit:4;stroke-dasharray:none;stroke-opacity:1"
       id="rect4149"
       width="1.7906091"
       height="42.8452"
       x="811.63733"
       y="298.3761"
       ry="0.76509285"
       transform="matrix(0.39716509,0.91774718,-0.72773986,0.68585326,0,0)" />
    <path
       inkscape:connector-curvature="0"
       style="opacity:1;fill:#1a1a1a;fill-opacity:1;stroke:#000000;stroke-width:0;stroke-linecap:round;stroke-linejoin:miter;stroke-miterlimit:4;stroke-dasharray:none;stroke-opacity:1"
       d="m 85.285164,976.54159 a 7.5240746,7.5240746 0 0 1 -7.524076,7.52407 7.5240746,7.5240746 0 0 1 -7.524074,-7.52407 7.5240746,7.5240746 0 0 1 7.524074,-7.52408 7.5240746,7.5240746 0 0 1 7.524076,7.52408 z"
       id="path4138" />
    <path
       inkscape:connector-curvature="0"
       style="opacity:1;fill:#000000;fill-opacity:1;stroke:#000000;stroke-width:0.54441816;stroke-linecap:round;stroke-linejoin:miter;stroke-miterlimit:4;stroke-dasharray:none;stroke-opacity:1"
       d="m 53.526585,952.05277 c 0.638689,-0.85432 2.137388,-1.09844 4.518612,1.35046 l 19.623676,20.56521 c 0.880634,0.92294 1.38141,1.91092 1.122729,2.21525 l -1.931073,2.27198 c -0.258621,0.30437 -1.175889,-0.19368 -2.056541,-1.11658 L 55.180315,956.77386 c -0.880648,-0.92295 -2.252535,-3.92008 -1.653747,-4.72108 z"
       id="rect4140"
       sodipodi:nodetypes="acsssssa" />
    <path
       inkscape:connector-curvature="0"
       style="opacity:1;fill:#000000;fill-opacity:1;stroke:#000000;stroke-width:0;stroke-linecap:round;stroke-linejoin:miter;stroke-miterlimit:4;stroke-dasharray:none;stroke-opacity:1"
       d="m 83.924869,976.14612 a 6.01926,6.01926 0 0 1 -6.019259,6.01926 6.01926,6.01926 0 0 1 -6.01926,-6.01926 6.01926,6.01926 0 0 1 6.01926,-6.01926 6.01926,6.01926 0 0 1 6.019259,6.01926 z"
       id="path4138-5" />
    <rect
       style="opacity:1;fill:#000000;fill-opacity:1;stroke:#000000;stroke-width:0;stroke-linecap:round;stroke-linejoin:miter;stroke-miterlimit:4;stroke-dasharray:none;stroke-opacity:1"
       id="rect4145"
       width="15.52513"
       height="2.701906"
       x="34.848347"
       y="973.57617"
       rx="0"
       ry="2.701906" />
    <rect
       style="opacity:1;fill:#000000;fill-opacity:1;stroke:#000000;stroke-width:0;stroke-linecap:round;stroke-linejoin:miter;stroke-miterlimit:4;stroke-dasharray:none;stroke-opacity:1"
       id="rect4145-1"
       width="15.52513"
       height="2.701906"
       x="106.61196"
       y="973.57617"
       rx="0"
       ry="2.701906" />
    <rect
       style="opacity:1;fill:#000000;fill-opacity:1;stroke:#000000;stroke-width:0;stroke-linecap:round;stroke-linejoin:miter;stroke-miterlimit:4;stroke-dasharray:none;stroke-opacity:1"
       id="rect4145-1-8"
       width="15.52513"
       height="2.701906"
       x="933.76068"
       y="-80.016586"
       rx="0"
       ry="2.701906"
       transform="matrix(0,1,-1,0,0,0)" />
    <rect
       style="opacity:1;fill:#000000;fill-opacity:1;stroke:#000000;stroke-width:0;stroke-linecap:round;stroke-linejoin:miter;stroke-miterlimit:4;stroke-dasharray:none;stroke-opacity:1"
       id="rect4145-1-8-8"
       width="15.52513"
       height="2.701906"
       x="1001.6429"
       y="-80.016586"
       rx="0"
       ry="2.701906"
       transform="matrix(0,1,-1,0,0,0)" />
  </g>
</svg>
